<?xml version="1.0" encoding="UTF-8"?><svg id="a" xmlns="http://www.w3.org/2000/svg" width="162.545" height="44.013" viewBox="0 0 162.545 44.013"><defs><style>.d{fill:#212121;}</style></defs><path class="d" d="M36.838,14.192h9.403v.328c-.712.066-1.225.176-1.539.328-.294.142-.532.363-.712.663-.181.299-.271.625-.271.976,0,.247.024.466.071.656s.19.603.428,1.239l4.217,11.469,4.089-10.059c.57-1.415.855-2.446.855-3.092,0-.361-.057-.698-.171-1.012-.114-.313-.266-.556-.456-.727-.19-.161-.399-.275-.627-.342s-.522-.1-.883-.1v-.328h6.34v.328c-.522.047-.976.176-1.361.384-.385.209-.753.527-1.104.955-.238.304-.487.72-.748,1.247-.261.527-.62,1.341-1.076,2.443l-5.842,14.091h-.598l-5.67-14.561c-.741-1.909-1.335-3.12-1.781-3.633-.285-.323-.634-.558-1.047-.705-.413-.147-.919-.221-1.517-.221v-.328Z"/><path class="d" d="M57.64,21.829l4.103-.513v8.206l.015,1.079c0,.644.038,1.114.114,1.412.076.299.223.547.442.745.266.256.755.45,1.467.583v.299h-6.297v-.299c.57-.076.978-.182,1.225-.319.247-.137.446-.371.599-.702.104-.217.178-.545.221-.984.043-.439.064-1.075.064-1.907v-3.501c0-.974-.023-1.656-.071-2.048-.047-.393-.152-.711-.313-.957-.162-.265-.356-.456-.584-.574-.228-.118-.556-.191-.983-.22v-.299ZM60.611,16.201c-.373,0-.681-.119-.924-.356-.244-.237-.365-.537-.365-.897,0-.352.124-.648.373-.891.248-.242.554-.363.917-.363s.668.121.917.363c.248.242.372.539.372.891,0,.361-.122.66-.365.897-.244.238-.552.356-.924.356Z"/><path class="d" d="M68.609,21.316c.134.554.2,1.07.2,1.547v.229c1.178-1.184,2.58-1.776,4.203-1.776,1.217,0,2.195.285,2.936.854.731.56,1.098,1.357,1.098,2.391v6.034c0,.646.037,1.117.113,1.416s.223.548.441.747c.266.257.756.451,1.468.584v.299h-6.298v-.299c.57-.076.979-.183,1.227-.32.246-.138.445-.372.598-.704.104-.219.178-.548.221-.989s.064-1.074.064-1.9v-3.016c0-1.035-.035-1.793-.107-2.277-.07-.484-.205-.873-.404-1.167-.219-.332-.531-.59-.938-.775s-.857-.277-1.351-.277c-.53,0-1.025.104-1.484.313-.461.208-.822.493-1.088.854-.285.379-.472.809-.562,1.288-.09.479-.136,1.273-.136,2.383v2.789l.016,1.053c0,.646.037,1.117.113,1.416s.223.548.441.747c.266.257.756.451,1.468.584v.299h-6.297v-.299c.57-.076.978-.182,1.225-.319.247-.137.446-.371.599-.702.104-.217.178-.545.221-.984s.064-1.075.064-1.907v-3.501c0-.974-.023-1.656-.072-2.048-.047-.393-.151-.711-.312-.957-.162-.265-.356-.456-.584-.574-.229-.118-.556-.191-.983-.22v-.299l3.902-.513Z"/><path class="d" d="M83.913,23.11c.398-.493.777-.859,1.138-1.096.729-.465,1.603-.697,2.618-.697,1.441,0,2.697.46,3.77,1.38,1.328,1.129,1.992,2.723,1.992,4.782s-.637,3.682-1.91,4.867c-1.102,1.034-2.512,1.552-4.23,1.552-.903,0-1.668-.124-2.295-.37l-.797-.328c-.219-.085-.414-.128-.584-.128-.485,0-.912.395-1.283,1.182h-.57v-16.712c0-1.064-.168-1.826-.506-2.287-.336-.46-.904-.691-1.701-.691v-.342l4.359-.599v9.487ZM83.913,27.422c0,1.015.057,1.949.17,2.804.113.854.26,1.475.439,1.864.218.465.542.83.973,1.096.43.266.92.398,1.469.398,1.154,0,2.107-.551,2.859-1.651s1.128-2.499,1.128-4.197c0-.893-.123-1.739-.369-2.541s-.597-1.482-1.05-2.042c-.359-.464-.757-.818-1.192-1.06-.435-.242-.88-.363-1.333-.363-.549,0-1.061.168-1.533.505s-.822.776-1.05,1.316c-.341.797-.511,2.087-.511,3.871Z"/><path class="d" d="M95.168,27.628c0-1.539.569-2.911,1.71-4.117,1.387-1.463,3.044-2.194,4.972-2.194s3.581.731,4.959,2.194c1.14,1.216,1.709,2.593,1.709,4.132,0,1.52-.541,2.873-1.624,4.061-1.33,1.463-3.011,2.194-5.044,2.194s-3.718-.731-5.058-2.194c-.522-.57-.924-1.206-1.203-1.909-.281-.703-.421-1.425-.421-2.166ZM97.761,27.465c0,1.65.371,3.05,1.111,4.197.836,1.281,1.857,1.922,3.063,1.922.513,0,1.012-.143,1.496-.427.484-.285.902-.684,1.254-1.196.37-.53.67-1.197.897-1.999s.342-1.577.342-2.327c0-.777-.121-1.562-.363-2.354s-.567-1.473-.976-2.042c-.779-1.072-1.733-1.608-2.864-1.608-1.073,0-2,.564-2.778,1.693-.788,1.129-1.183,2.509-1.183,4.142Z"/><path class="d" d="M109.942,14.135l4.104-.513v15.889l.015,1.082c0,.646.038,1.117.114,1.417.075.299.223.548.441.747.266.257.755.451,1.468.584v.299h-6.298v-.299c.57-.076.979-.183,1.226-.32.246-.138.446-.372.598-.704.104-.219.179-.548.222-.989.042-.44.063-1.078.063-1.913v-11.167c0-.967-.023-1.65-.071-2.049-.048-.398-.151-.721-.313-.967-.161-.266-.355-.455-.584-.569-.228-.114-.556-.185-.983-.213v-.313Z"/><path class="d" d="M129.05,32.258l.242.143c-.343.997-1.126,1.496-2.352,1.496-.675,0-1.236-.167-1.684-.499-.295-.219-.599-.599-.913-1.14-.638.569-1.118.945-1.441,1.125-.618.343-1.336.514-2.154.514-1.047,0-1.876-.252-2.49-.756-.613-.503-.92-1.183-.92-2.037,0-.788.252-1.448.755-1.98.285-.294.613-.529.983-.705s.907-.354,1.61-.534c.826-.209,1.437-.385,1.83-.527.395-.143.725-.313.99-.513.304-.219.513-.476.627-.77.114-.294.171-.703.171-1.226,0-1.111-.209-1.923-.627-2.436-.189-.237-.435-.428-.733-.57-.299-.143-.61-.214-.934-.214-.39,0-.736.1-1.04.299-.304.199-.532.475-.684.826l-.356.827c-.189.446-.532.669-1.025.669-.323,0-.594-.107-.812-.321-.219-.213-.327-.482-.327-.805,0-.484.342-.893,1.027-1.226.371-.171.83-.311,1.377-.42.547-.109,1.082-.164,1.605-.164.59,0,1.203.076,1.841.228s1.17.347,1.599.584c.618.352,1.004.808,1.156,1.368.075.285.113.765.113,1.439v5.271c0,.893.038,1.501.114,1.823.161.675.551,1.012,1.169,1.012.294,0,.524-.052.69-.156s.363-.313.592-.627ZM124.333,26.645c-.511.427-1.074.803-1.689,1.125-.691.37-1.17.65-1.435.841-.266.19-.507.418-.725.684-.445.551-.667,1.192-.667,1.924,0,.627.172,1.145.518,1.553s.784.612,1.314.612c.464,0,.901-.145,1.313-.435.412-.289.722-.677.931-1.161.293-.636.439-1.558.439-2.764v-2.379Z"/><path class="d" d="M132.867,34.851l-.256.071c-.162-.266-.323-.451-.484-.556-.162-.104-.361-.156-.599-.156-.399,0-.725.151-.976.455-.252.305-.378.698-.378,1.183,0,.77.385,1.401,1.154,1.896.769.493,1.752.74,2.949.74,1.272,0,2.301-.272,3.084-.818.784-.547,1.176-1.257,1.176-2.131,0-.702-.262-1.241-.783-1.617-.522-.375-1.269-.562-2.237-.562h-2.266c-.931,0-1.681-.219-2.251-.657-.589-.457-.883-1.005-.883-1.644,0-.677.312-1.21.939-1.601.323-.19.912-.396,1.768-.615-.827-.379-1.468-.879-1.924-1.5s-.684-1.306-.684-2.055c0-.958.356-1.811,1.069-2.56.418-.445.912-.792,1.482-1.038.57-.246,1.154-.37,1.753-.37.913,0,1.844.323,2.795.969.447-.351.85-.601,1.207-.748.356-.147.745-.221,1.164-.221.466,0,.842.1,1.128.299.343.247.515.551.515.912,0,.219-.067.401-.202.549-.134.147-.302.221-.503.221-.307,0-.585-.162-.834-.484l-.327-.428c-.18-.228-.436-.342-.768-.342-.35,0-.72.176-1.107.527.774.94,1.162,1.909,1.162,2.906,0,1.244-.553,2.228-1.657,2.949-.553.361-1.148.604-1.786.727-.19.028-.795.076-1.814.143-1.396.086-2.094.476-2.094,1.169,0,.607.594.911,1.783.911h2.354c.828,0,1.527.074,2.098.221.571.147,1.07.378,1.499.691.837.617,1.256,1.486,1.256,2.607,0,1.234-.485,2.198-1.455,2.893-.999.712-2.464,1.068-4.395,1.068-2.073,0-3.543-.418-4.408-1.254-.552-.542-.827-1.216-.827-2.023,0-.637.204-1.175.612-1.617.408-.441.907-.662,1.496-.662.428,0,.776.128,1.048.385.271.256.405.594.405,1.012v.156ZM132.255,25.383c0,1.024.215,1.858.646,2.503.431.645.982.967,1.654.967.682,0,1.212-.32,1.591-.96s.568-1.528.568-2.666c0-1.176-.247-2.114-.739-2.815-.359-.521-.823-.782-1.392-.782-.682,0-1.231.341-1.647,1.024-.208.341-.374.758-.497,1.251-.123.493-.185.986-.185,1.479Z"/><path class="d" d="M144.337,25.89c-.038.465-.057.802-.057,1.011,0,.826.12,1.634.361,2.422.241.789.57,1.444.987,1.967.426.532.953.949,1.583,1.254.63.304,1.29.455,1.98.455.512,0,.997-.085,1.456-.256s.84-.408,1.143-.713c.341-.332.635-.864.881-1.596l.299.1c-.247,1.111-.776,1.95-1.589,2.516-.812.564-1.893.848-3.241.848-1.168,0-2.17-.186-3.006-.556-.836-.371-1.544-.94-2.123-1.71-.808-1.073-1.211-2.394-1.211-3.961,0-2.137.765-3.813,2.294-5.029,1.111-.883,2.379-1.325,3.804-1.325.76,0,1.463.135,2.109.406.646.271,1.191.662,1.638,1.175.693.798,1.04,1.795,1.04,2.992h-8.349ZM150.549,25.334c-.066-.95-.241-1.682-.524-2.194-.256-.465-.596-.833-1.021-1.104-.426-.271-.879-.406-1.361-.406-.813,0-1.525.352-2.135,1.054-.61.703-.972,1.586-1.085,2.65h6.127Z"/><path class="d" d="M158.157,21.53h3.618v.542h-3.618v8.292c0,.998.17,1.71.511,2.138.18.237.417.423.71.556.294.133.611.199.952.199.426,0,.78-.088,1.064-.264s.597-.496.938-.962l.213.186c-.313.57-.753.993-1.317,1.269-.565.275-1.271.413-2.116.413-1.121,0-1.938-.219-2.45-.656-.276-.228-.456-.5-.542-.818-.085-.318-.128-.891-.128-1.717v-8.634h-1.524v-.228c.617-.2,1.188-.584,1.711-1.154.315-.351.568-.7.76-1.047.191-.346.373-.795.545-1.346l.144-.47h.531v3.705Z"/><g id="b"><g id="c"><path class="d" d="M16.01,2.893C12.866-.637,2.666,1.829,1.516,2.122l-1.516.379.984,1.217c.665.818,6.383,7.693,11.064,7.693.239,0,.472-.02.705-.053,1.669-.273,2.912-1.443,3.697-3.491.791-2.081.645-3.757-.439-4.973ZM12.433,9.382c-2.593.419-6.602-3.258-8.83-5.691,3.949-.791,9.375-1.203,10.917.532.179.199.685.758.286,2.254-1.569-.931-4.488-1.536-7.068-1.915l-.193,1.317c3.032.446,5.931,1.243,6.815,1.802-.492,1.017-1.123,1.576-1.928,1.702ZM18,44.013c-2.823,0-5.12-2.297-5.12-5.12s2.297-5.12,5.12-5.12,5.12,2.296,5.12,5.12-2.296,5.12-5.12,5.12ZM18,35.768c-1.723,0-3.125,1.402-3.125,3.125s1.402,3.125,3.125,3.125,3.125-1.402,3.125-3.125c0-1.723-1.402-3.125-3.125-3.125ZM23.67,34.669c-2.823,0-5.12-2.297-5.12-5.12s2.297-5.12,5.12-5.12,5.12,2.297,5.12,5.12-2.297,5.12-5.12,5.12ZM23.67,26.424c-1.723,0-3.125,1.402-3.125,3.125s1.402,3.125,3.125,3.125,3.125-1.402,3.125-3.125c0-1.723-1.402-3.125-3.125-3.125ZM12.329,34.669c-2.823,0-5.12-2.297-5.12-5.12s2.297-5.12,5.12-5.12,5.12,2.297,5.12,5.12-2.297,5.12-5.12,5.12ZM12.329,26.424c-1.723,0-3.125,1.402-3.125,3.125s1.402,3.125,3.125,3.125,3.125-1.402,3.125-3.125c0-1.723-1.402-3.125-3.125-3.125ZM29.551,25.325c-2.823,0-5.12-2.297-5.12-5.12s2.297-5.12,5.12-5.12,5.12,2.297,5.12,5.12-2.296,5.12-5.12,5.12ZM29.551,17.08c-1.723,0-3.125,1.402-3.125,3.125s1.402,3.125,3.125,3.125,3.125-1.402,3.125-3.125-1.402-3.125-3.125-3.125ZM18.211,25.325c-2.823,0-5.12-2.297-5.12-5.12s2.297-5.12,5.12-5.12,5.12,2.297,5.12,5.12-2.297,5.12-5.12,5.12ZM18.211,17.08c-1.723,0-3.125,1.402-3.125,3.125s1.402,3.125,3.125,3.125,3.125-1.402,3.125-3.125-1.402-3.125-3.125-3.125ZM6.87,25.325c-2.823,0-5.12-2.297-5.12-5.12s2.297-5.12,5.12-5.12,5.12,2.297,5.12,5.12-2.296,5.12-5.12,5.12ZM6.87,17.08c-1.723,0-3.125,1.402-3.125,3.125s1.402,3.125,3.125,3.125,3.125-1.402,3.125-3.125-1.402-3.125-3.125-3.125ZM20.855,14.495h-4.649l.18-1.152c.51-3.257,2.122-8.049,6.907-12.381,1.013-.917,2.277-1.195,3.471-.763,1.269.459,2.217,1.648,2.413,3.028.216,1.52-.499,3.002-1.961,4.067-1.663,1.213-3.76,3.559-6.063,6.783l-.299.418ZM18.577,12.5h1.254c2.339-3.225,4.427-5.518,6.211-6.818h0c.858-.625,1.27-1.398,1.16-2.174-.092-.649-.541-1.224-1.117-1.433-.491-.177-.993-.051-1.454.366-3.814,3.453-5.409,7.206-6.054,10.06Z"/></g></g></svg>