<?xml version="1.0" encoding="UTF-8"?>
<svg id="Layer_1" xmlns="http://www.w3.org/2000/svg" width="40" height="48" version="1.1" viewBox="0 0 40 48">
  <!-- Generator: Adobe Illustrator 29.0.1, SVG Export Plug-In . SVG Version: 2.1.0 Build 192)  -->
  <defs>
    <style>
      .st0 {
        fill: #212121;
      }
    </style>
  </defs>
  <g id="_x35_">
    <path id="icon" class="st0" d="M16.34,3.573C13.195.043,2.995,2.509,1.845,2.802l-1.516.379.984,1.217c.665.818,6.383,7.693,11.064,7.693.239,0,.472-.02.705-.053,1.669-.273,2.912-1.443,3.697-3.491.791-2.081.645-3.757-.439-4.973ZM12.762,10.062c-2.593.419-6.602-3.258-8.83-5.691,3.949-.791,9.375-1.203,10.917.532.179.199.685.758.286,2.254-1.569-.931-4.488-1.536-7.068-1.915l-.193,1.317c3.032.446,5.931,1.243,6.815,1.802-.492,1.017-1.123,1.576-1.928,1.702ZM18.329,44.693c-2.823,0-5.12-2.297-5.12-5.12s2.297-5.12,5.12-5.12,5.12,2.296,5.12,5.12-2.296,5.12-5.12,5.12ZM18.329,36.448c-1.723,0-3.125,1.402-3.125,3.125s1.402,3.125,3.125,3.125,3.125-1.402,3.125-3.125c0-1.723-1.402-3.125-3.125-3.125ZM23.999,35.349c-2.823,0-5.12-2.297-5.12-5.12s2.297-5.12,5.12-5.12,5.12,2.297,5.12,5.12-2.297,5.12-5.12,5.12ZM23.999,27.104c-1.723,0-3.125,1.402-3.125,3.125s1.402,3.125,3.125,3.125,3.125-1.402,3.125-3.125c0-1.723-1.402-3.125-3.125-3.125ZM12.658,35.349c-2.823,0-5.12-2.297-5.12-5.12s2.297-5.12,5.12-5.12,5.12,2.297,5.12,5.12-2.297,5.12-5.12,5.12ZM12.658,27.104c-1.723,0-3.125,1.402-3.125,3.125s1.402,3.125,3.125,3.125,3.125-1.402,3.125-3.125c0-1.723-1.402-3.125-3.125-3.125ZM29.88,26.005c-2.823,0-5.12-2.297-5.12-5.12s2.297-5.12,5.12-5.12,5.12,2.297,5.12,5.12-2.296,5.12-5.12,5.12ZM29.88,17.76c-1.723,0-3.125,1.402-3.125,3.125s1.402,3.125,3.125,3.125,3.125-1.402,3.125-3.125-1.402-3.125-3.125-3.125ZM18.541,26.005c-2.823,0-5.12-2.297-5.12-5.12s2.297-5.12,5.12-5.12,5.12,2.297,5.12,5.12-2.297,5.12-5.12,5.12ZM18.541,17.76c-1.723,0-3.125,1.402-3.125,3.125s1.402,3.125,3.125,3.125,3.125-1.402,3.125-3.125-1.402-3.125-3.125-3.125ZM7.2,26.005c-2.823,0-5.12-2.297-5.12-5.12s2.297-5.12,5.12-5.12,5.12,2.297,5.12,5.12-2.296,5.12-5.12,5.12ZM7.2,17.76c-1.723,0-3.125,1.402-3.125,3.125s1.402,3.125,3.125,3.125,3.125-1.402,3.125-3.125-1.402-3.125-3.125-3.125ZM21.184,15.175h-4.649l.18-1.152c.51-3.257,2.122-8.049,6.907-12.381,1.013-.917,2.277-1.195,3.471-.763,1.269.459,2.217,1.648,2.413,3.028.216,1.52-.499,3.002-1.961,4.067-1.663,1.213-3.76,3.559-6.063,6.783l-.299.418ZM18.906,13.18h1.254c2.339-3.225,4.427-5.518,6.211-6.818h0c.858-.625,1.27-1.398,1.16-2.174-.092-.649-.541-1.224-1.117-1.433-.491-.177-.993-.051-1.454.366-3.814,3.453-5.409,7.206-6.054,10.06Z"/>
  </g>
</svg>